<?xml version="1.0" encoding="UTF-8" standalone="no"?>
<svg viewBox="0 0 50 50"
 xmlns="http://www.w3.org/2000/svg" xmlns:xlink="http://www.w3.org/1999/xlink"  version="1.2" baseProfile="tiny">
<title>Qt SVG Document</title>
<desc>Generated with Qt</desc>
<defs>
</defs>
<g fill="none" stroke="black" stroke-width="1" fill-rule="evenodd" stroke-linecap="square" stroke-linejoin="bevel" >

<g fill="none" stroke="none" transform="matrix(2.27273,0,0,2.27273,0,-61.3636)"
font-family="Noto Sans" font-size="10" font-weight="400" font-style="normal" 
>
<rect x="0" y="27" width="22" height="22"/>
</g>

<g fill="#c32d1e" fill-opacity="1" stroke="none" transform="matrix(2.27273,0,0,2.27273,0,-61.3636)"
font-family="Noto Sans" font-size="10" font-weight="400" font-style="normal" 
>
<path vector-effect="none" fill-rule="evenodd" d="M0,35.91 C0,30.9891 3.10267,27 6.93,27 L15.07,27 C18.8973,27 22,30.9891 22,35.91 L22,40.09 C22,45.0109 18.8973,49 15.07,49 L6.93,49 C3.10267,49 0,45.0109 0,40.09 L0,35.91"/>
</g>

<g fill="#c32d1e" fill-opacity="1" stroke="none" transform="matrix(2.27273,0,0,2.27273,0,-61.3636)"
font-family="Noto Sans" font-size="10" font-weight="400" font-style="normal" 
>
<rect x="0" y="27" width="9" height="9"/>
</g>

<g fill="#c32d1e" fill-opacity="1" stroke="none" transform="matrix(2.27273,0,0,2.27273,0,-61.3636)"
font-family="Noto Sans" font-size="10" font-weight="400" font-style="normal" 
>
<rect x="0" y="40" width="9" height="9"/>
</g>

<g fill="#c32d1e" fill-opacity="1" stroke="none" transform="matrix(2.27273,0,0,2.27273,0,-61.3636)"
font-family="Noto Sans" font-size="10" font-weight="400" font-style="normal" 
>
<rect x="13" y="40" width="9" height="9"/>
</g>

<g fill="#ffffff" fill-opacity="1" stroke="none" transform="matrix(1.13636,1.96824,-1.96824,1.13636,3.41008,-11.4442)"
font-family="Noto Sans" font-size="10" font-weight="400" font-style="normal" 
>
<path vector-effect="none" fill-rule="evenodd" d="M14.1369,-0.209132 C14.1369,-0.485275 14.3585,-0.709132 14.6319,-0.709132 L22.6419,-0.709132 C22.9153,-0.709132 23.1369,-0.485275 23.1369,-0.209132 C23.1369,0.0670099 22.9153,0.290868 22.6419,0.290868 L14.6319,0.290868 C14.3585,0.290868 14.1369,0.0670099 14.1369,-0.209132 "/>
</g>

<g fill="#ffffff" fill-opacity="1" stroke="none" transform="matrix(-1.13636,1.96824,1.96824,1.13636,3.41008,-11.4442)"
font-family="Noto Sans" font-size="10" font-weight="400" font-style="normal" 
>
<path vector-effect="none" fill-rule="evenodd" d="M4.63734,16.2446 C4.63734,15.9685 4.85895,15.7446 5.13234,15.7446 L13.1423,15.7446 C13.4157,15.7446 13.6373,15.9685 13.6373,16.2446 C13.6373,16.5207 13.4157,16.7446 13.1423,16.7446 L5.13234,16.7446 C4.85895,16.7446 4.63734,16.5207 4.63734,16.2446 "/>
</g>

<g fill="none" stroke="#000000" stroke-opacity="1" stroke-width="1" stroke-linecap="square" stroke-linejoin="bevel" transform="matrix(1,0,0,1,0,0)"
font-family="Noto Sans" font-size="10" font-weight="400" font-style="normal" 
>
</g>
</g>
</svg>
