<?xml version="1.0" encoding="UTF-8" standalone="no"?>
<svg viewBox="0 0 50 50"
 xmlns="http://www.w3.org/2000/svg" xmlns:xlink="http://www.w3.org/1999/xlink"  version="1.2" baseProfile="tiny">
<title>Qt SVG Document</title>
<desc>Generated with Qt</desc>
<defs>
</defs>
<g fill="none" stroke="black" stroke-width="1" fill-rule="evenodd" stroke-linecap="square" stroke-linejoin="bevel" >

<g fill="none" stroke="none" transform="matrix(2.27273,0,0,2.27273,0,-61.3636)"
font-family="Noto Sans" font-size="10" font-weight="400" font-style="normal" 
>
<rect x="4.87941e-07" y="27" width="22" height="22"/>
</g>

<g fill="#ebebeb" fill-opacity="1" stroke="none" transform="matrix(2.27273,0,0,2.27273,0,-61.3636)"
font-family="Noto Sans" font-size="10" font-weight="400" font-style="normal" 
>
<rect x="0" y="27" width="22" height="22"/>
</g>

<g fill="#000000" fill-opacity="1" stroke="none" transform="matrix(2.27273,0,0,2.27273,0,-125)"
font-family="Noto Sans" font-size="10" font-weight="400" font-style="normal" 
>
<path vector-effect="none" fill-rule="nonzero" d="M9,62 C8.446,62 8,62.446 8,63 L8,69 C8,69.554 8.446,70 9,70 L13,70 C13.554,70 14,69.554 14,69 L14,63 C14,62.446 13.554,62 13,62 L9,62 M8.94531,62.6719 L13.0547,62.6719 C13.2429,62.6719 13.3945,62.8235 13.3945,63.0117 L13.3945,68.9766 C13.3945,69.1648 13.2429,69.3164 13.0547,69.3164 L8.94531,69.3164 C8.75712,69.3164 8.60547,69.1648 8.60547,68.9766 L8.60547,63.0117 C8.60547,62.8235 8.75712,62.6719 8.94531,62.6719 "/>
</g>

<g fill="none" stroke="#000000" stroke-opacity="1" stroke-width="1" stroke-linecap="square" stroke-linejoin="bevel" transform="matrix(1,0,0,1,0,0)"
font-family="Noto Sans" font-size="10" font-weight="400" font-style="normal" 
>
</g>
</g>
</svg>
