<?xml version="1.0" encoding="UTF-8" standalone="no"?>
<svg viewBox="0 0 50 50"
 xmlns="http://www.w3.org/2000/svg" xmlns:xlink="http://www.w3.org/1999/xlink"  version="1.2" baseProfile="tiny">
<title>Qt SVG Document</title>
<desc>Generated with Qt</desc>
<defs>
</defs>
<g fill="none" stroke="black" stroke-width="1" fill-rule="evenodd" stroke-linecap="square" stroke-linejoin="bevel" >

<g fill="#000000" fill-opacity="1" stroke="none" transform="matrix(2.27273,0,0,2.27273,-2.16744e-06,-2.16744e-06)"
font-family="Noto Sans" font-size="10" font-weight="400" font-style="normal" 
opacity="0" >
<rect x="9.53674e-07" y="9.53674e-07" width="22" height="22"/>
</g>

<g fill="#000000" fill-opacity="1" stroke="none" transform="matrix(2.27273,0,0,2.27273,-2.16744e-06,-2.16744e-06)"
font-family="Noto Sans" font-size="10" font-weight="400" font-style="normal" 
opacity="0.4" >
<path vector-effect="none" fill-rule="nonzero" d="M9,7 C8.446,7 8,7.446 8,8 L8,14 C8,14.554 8.446,15 9,15 L13,15 C13.554,15 14,14.554 14,14 L14,8 C14,7.446 13.554,7 13,7 L9,7 M8.94531,7.67773 L13.0547,7.67773 C13.2429,7.67773 13.3945,7.82938 13.3945,8.01758 L13.3945,13.9824 C13.3945,14.1706 13.2429,14.3223 13.0547,14.3223 L8.94531,14.3223 C8.75712,14.3223 8.60547,14.1706 8.60547,13.9824 L8.60547,8.01758 C8.60547,7.82938 8.75712,7.67773 8.94531,7.67773 "/>
</g>

<g fill="none" stroke="#000000" stroke-opacity="1" stroke-width="1" stroke-linecap="square" stroke-linejoin="bevel" transform="matrix(1,0,0,1,0,0)"
font-family="Noto Sans" font-size="10" font-weight="400" font-style="normal" 
>
</g>
</g>
</svg>
