<?xml version="1.0" encoding="UTF-8" standalone="no"?>
<svg viewBox="0 0 50 50"
 xmlns="http://www.w3.org/2000/svg" xmlns:xlink="http://www.w3.org/1999/xlink"  version="1.2" baseProfile="tiny">
<title>Qt SVG Document</title>
<desc>Generated with Qt</desc>
<defs>
</defs>
<g fill="none" stroke="black" stroke-width="1" fill-rule="evenodd" stroke-linecap="square" stroke-linejoin="bevel" >

<g fill="none" stroke="none" transform="matrix(2.27273,0,0,2.27273,0,-61.3636)"
font-family="Noto Sans" font-size="10" font-weight="400" font-style="normal" 
>
<rect x="4.87941e-07" y="27" width="22" height="22"/>
</g>

<g fill="#ebebeb" fill-opacity="1" stroke="none" transform="matrix(2.27273,0,0,2.27273,0,-61.3636)"
font-family="Noto Sans" font-size="10" font-weight="400" font-style="normal" 
>
<rect x="0" y="27" width="22" height="22"/>
</g>

<g fill="#000000" fill-opacity="1" stroke="none" transform="matrix(2.27273,0,0,2.27273,0,-61.3636)"
font-family="Noto Sans" font-size="10" font-weight="400" font-style="normal" 
>
<path vector-effect="none" fill-rule="nonzero" d="M9,34 C8.446,34 8,34.446 8,35 L8,41 C8,41.554 8.446,42 9,42 L13,42 C13.554,42 14,41.554 14,41 L14,35 C14,34.446 13.554,34 13,34 L9,34 M8.94531,34.6777 L13.0547,34.6777 C13.2429,34.6777 13.3945,34.8294 13.3945,35.0176 L13.3945,40.9824 C13.3945,41.1706 13.2429,41.3223 13.0547,41.3223 L8.94531,41.3223 C8.75712,41.3223 8.60547,41.1706 8.60547,40.9824 L8.60547,35.0176 C8.60547,34.8294 8.75712,34.6777 8.94531,34.6777 "/>
</g>

<g fill="none" stroke="#000000" stroke-opacity="1" stroke-width="1" stroke-linecap="square" stroke-linejoin="bevel" transform="matrix(1,0,0,1,0,0)"
font-family="Noto Sans" font-size="10" font-weight="400" font-style="normal" 
>
</g>
</g>
</svg>
