<?xml version="1.0" encoding="UTF-8" standalone="no"?>
<svg viewBox="0 0 50 50"
 xmlns="http://www.w3.org/2000/svg" xmlns:xlink="http://www.w3.org/1999/xlink"  version="1.2" baseProfile="tiny">
<title>Qt SVG Document</title>
<desc>Generated with Qt</desc>
<defs>
</defs>
<g fill="none" stroke="black" stroke-width="1" fill-rule="evenodd" stroke-linecap="square" stroke-linejoin="bevel" >

<g fill="#000000" fill-opacity="1" stroke="none" transform="matrix(2.27273,0,0,2.27273,-2.16744e-06,-2.16744e-06)"
font-family="Noto Sans" font-size="10" font-weight="400" font-style="normal" 
opacity="0" >
<rect x="9.53674e-07" y="9.53674e-07" width="22" height="22"/>
</g>

<g fill="#000000" fill-opacity="1" stroke="none" transform="matrix(2.27273,0,0,2.27273,-2.16744e-06,-2.16744e-06)"
font-family="Noto Sans" font-size="10" font-weight="400" font-style="normal" 
opacity="0.4" >
<path vector-effect="none" fill-rule="nonzero" d="M8,9 C7.446,9 7,9.446 7,10 L7,14 C7,14.554 7.446,15 8,15 L11,15 C11.554,15 12,14.554 12,14 L12,10 C12,9.446 11.554,9 11,9 L8,9 M7.98242,9.63672 L11.0176,9.63672 C11.2208,9.63672 11.3828,9.8007 11.3828,10.0039 L11.3828,13.9961 C11.3828,14.1993 11.2208,14.3633 11.0176,14.3633 L7.98242,14.3633 C7.77921,14.3633 7.61719,14.1993 7.61719,13.9961 L7.61719,10.0039 C7.61719,9.8007 7.77921,9.63672 7.98242,9.63672 "/>
</g>

<g fill="#000000" fill-opacity="1" stroke="none" transform="matrix(2.27273,0,0,2.27273,-68.1818,40.9091)"
font-family="Noto Sans" font-size="10" font-weight="400" font-style="normal" 
opacity="0.4" >
<path vector-effect="none" fill-rule="nonzero" d="M39.3184,-11 C39.1415,-11 39,-10.8585 39,-10.6816 C39,-10.5048 39.1415,-10.3613 39.3184,-10.3613 L43,-10.3613 L43,-4.95703 C43,-4.78024 43.1416,-4.63867 43.3184,-4.63867 C43.4951,-4.63867 43.6387,-4.78024 43.6387,-4.95703 L43.6387,-10.6816 C43.6387,-10.7147 43.6323,-10.7455 43.623,-10.7754 C43.6199,-10.7854 43.6173,-10.7951 43.6132,-10.8047 C43.6051,-10.8238 43.5954,-10.8424 43.5839,-10.8594 C43.5725,-10.8764 43.5593,-10.8918 43.5449,-10.9063 C43.5305,-10.9207 43.515,-10.9339 43.498,-10.9453 C43.4894,-10.9511 43.4799,-10.956 43.4707,-10.9609 C43.4617,-10.9658 43.4529,-10.9705 43.4433,-10.9746 C43.4242,-10.9827 43.4036,-10.9899 43.3828,-10.9941 C43.362,-10.9983 43.3404,-11 43.3183,-11 L39.3184,-11"/>
</g>

<g fill="none" stroke="#000000" stroke-opacity="1" stroke-width="1" stroke-linecap="square" stroke-linejoin="bevel" transform="matrix(1,0,0,1,0,0)"
font-family="Noto Sans" font-size="10" font-weight="400" font-style="normal" 
>
</g>
</g>
</svg>
