<?xml version="1.0" encoding="UTF-8" standalone="no"?>
<svg viewBox="0 0 50 50"
 xmlns="http://www.w3.org/2000/svg" xmlns:xlink="http://www.w3.org/1999/xlink"  version="1.2" baseProfile="tiny">
<title>Qt SVG Document</title>
<desc>Generated with Qt</desc>
<defs>
</defs>
<g fill="none" stroke="black" stroke-width="1" fill-rule="evenodd" stroke-linecap="square" stroke-linejoin="bevel" >

<g fill="none" stroke="none" transform="matrix(2.27273,0,0,2.27273,-1.42238e-06,-72.7273)"
font-family="Noto Sans" font-size="10" font-weight="400" font-style="normal" 
>
<rect x="6.25846e-07" y="32" width="22" height="22"/>
</g>

<g fill="#ebebeb" fill-opacity="1" stroke="none" transform="matrix(2.27273,0,0,2.27273,56.8182,-72.7273)"
font-family="Noto Sans" font-size="10" font-weight="400" font-style="normal" 
>
<rect x="-25" y="32" width="22" height="22"/>
</g>

<g fill="#000000" fill-opacity="1" stroke="none" transform="matrix(2.27273,0,0,2.27273,56.8182,-72.7273)"
font-family="Noto Sans" font-size="10" font-weight="400" font-style="normal" 
>
<path vector-effect="none" fill-rule="evenodd" d="M-17,43.5 C-17,43.2239 -16.7851,43 -16.52,43 L-11.48,43 C-11.2149,43 -11,43.2239 -11,43.5 C-11,43.7761 -11.2149,44 -11.48,44 L-16.52,44 C-16.7851,44 -17,43.7761 -17,43.5 "/>
</g>

<g fill="none" stroke="#000000" stroke-opacity="1" stroke-width="1" stroke-linecap="square" stroke-linejoin="bevel" transform="matrix(1,0,0,1,0,0)"
font-family="Noto Sans" font-size="10" font-weight="400" font-style="normal" 
>
</g>
</g>
</svg>
